# xmcd
#
# Track frame offsets:
#	150
#	3739
#	18254
#	54369
#	68324
#	82551
#	133168
#	148547
#	171575
#	193698
#	228236
#	250190
#	280588
#	303708
#
# Disc length: 4569 seconds
#
# Revision: 1
# Processed by: cddbd v1.5.2PL0 Copyright (c) Steve Scherf et al.
# Submitted via: audiograbber 1.83.01
#
DISCID=b311d70e
DTITLE=Grateful Dead - 73-08-01 Roosevelt Stadium, Jersey City NJ
DYEAR=1900
DGENRE=
TTITLE0=Phil's announcements
TTITLE1=Promised Land
TTITLE2=Sugaree
TTITLE3=The Race Is On
TTITLE4=You Ain't Woman Enough
TTITLE5=Bird Song
TTITLE6=Mexicali Blues
TTITLE7=They Love Each Other
TTITLE8=Jack Straw
TTITLE9=Stella Blue
TTITLE10=Big River
TTITLE11=Casey Jones
TTITLE12=Around and Around
TTITLE13=Mississippi Half-Step
EXTD=
EXTT0=
EXTT1=
EXTT2=
EXTT3=
EXTT4=
EXTT5=
EXTT6=
EXTT7=
EXTT8=
EXTT9=
EXTT10=
EXTT11=
EXTT12=
EXTT13=
PLAYORDER=
